# AST/ASF file generated using VICON BodyLanguage
# -----------------------------------------------
:version 1.10
:name VICON
:units
  mass 1.0
  length 0.45
  angle deg
:documentation
   .ast/.asf automatically generated from VICON data using
   VICON BodyBuilder and BodyLanguage model FoxedUp or BRILLIANT.MOD
:root
   order TX TY TZ RX RY RZ
   axis XYZ
   position 0 0 0  
   orientation 0 0 0 
:bonedata
  begin
     id 1 
     name lhipjoint
     direction 0.734343 -0.627749 0.258209 
     length 2.5437 
     axis 0 0 0  XYZ
  end
  begin
     id 2 
     name lfemur
     direction 0.34202 -0.939693 0  
     length 6.7391  
     axis 0 0 20  XYZ
    dof rx ry rz
    limits (-160.0 20.0)
           (-70.0 70.0)
           (-60.0 70.0)
  end
  begin
     id 3 
     name ltibia
     direction 0.34202 -0.939693 0   
     length 7.21536   
     axis 0 0 20   XYZ
    dof rx
    limits (-10.0 170.0)
  end
  begin
     id 4 
     name lfoot
     direction 0.0489572 -0.134509 0.989702   
     length 1.61313   
     axis -90 7.62852e-016 20   XYZ
    dof rx rz
    limits (-45.0 90.0)
           (-70.0 20.0)
  end
  begin
     id 5 
     name ltoes
     direction 1.53451e-011 -4.21692e-011 1   
     length 0.823104   
     axis -90 7.62852e-016 20   XYZ
    dof rx
    limits (-90.0 20.0)
  end
  begin
     id 6 
     name rhipjoint
     direction -0.746398 -0.615468 0.253157   
     length 2.59446  
     axis 0 0 0  XYZ 
  end
  begin
     id 7 
     name rfemur
     direction -0.34202 -0.939693 0   
     length 6.7075   
     axis 0 0 -20   XYZ
    dof rx ry rz
    limits (-160.0 20.0)
           (-70.0 70.0)
           (-70.0 60.0)
  end
  begin
     id 8 
     name rtibia
     direction -0.34202 -0.939693 0   
     length 7.27262   
     axis 0 0 -20   XYZ
    dof rx
    limits (-10.0 170.0)
 end
 begin
     id 9 
     name rfoot
     direction -0.0455203 -0.125066 0.991104   
     length 1.91095  
     axis -90 -7.62852e-016 -20   XYZ
    dof rx rz
    limits (-45.0 90.0)
           (-20.0 70.0)
  end
  begin
     id 10 
     name rtoes
     direction -1.53601e-011 -4.21913e-011 1   
     length 0.969037   
     axis -90 -7.62852e-016 -20   XYZ
    dof rx
    limits (-90.0 20.0)
  end
  begin
     id 11 
     name lowerback
     direction 0.0181546 0.999122 -0.0377542   
     length 1.99916   
     axis 0 0 0   XYZ
    dof rx ry rz
    limits (-20.0 45.0)
           (-30.0 30.0)
           (-30.0 30.0)
  end
  begin
     id 12 
     name upperback
     direction 0.0203486 0.99589 0.0882534   
     length 1.951   
     axis 0 0 0   XYZ
    dof rx ry rz
    limits (-20.0 45.0)
           (-30.0 30.0)
           (-30.0 30.0)
  end
  begin
     id 13 
     name thorax
     direction 0.0131685 0.994241 0.106355   
     length 1.97461   
     axis 0 0 0   XYZ
    dof rx ry rz
    limits (-20.0 45.0)
           (-30.0 30.0)
           (-30.0 30.0)
  end
  begin
     id 14 
     name lowerneck
     direction -0.0281395 0.999325 0.023617   
     length 1.7959   
     axis 0 0 0   XYZ
    dof rx ry rz
    limits (-20.0 45.0)
           (-30.0 30.0)
           (-30.0 30.0)
  end
  begin
     id 15 
     name upperneck
     direction 0.0288721 0.991984 -0.123019   
     length 1.79917   
     axis 0 0 0   XYZ
    dof rx ry rz
    limits (-20.0 45.0)
           (-30.0 30.0)
           (-30.0 30.0)
  end
  begin
     id 16
     name head
     direction 0.0133797 0.998944 -0.0439492  
     length 1.80902  
     axis 0 0 0   XYZ
    dof rx ry rz
    limits (-20.0 45.0)
           (-30.0 30.0)
           (-30.0 30.0)
  end
  begin
     id 17 
     name lclavicle
     direction 0.919195 0.377107 0.113449  
     length 3.17815  
     axis 0 0 0   XYZ
    dof ry rz
    limits (-20.0 10.0)
           (0.0 20.0)
  end
  begin
     id 18 
     name lhumerus
     direction 1 -4.48959e-011 2.13129e-027   
     length 4.84137   
     axis 180 -30 -90   XYZ
    dof rx ry rz
    limits (-60.0 90.0)
           (-90.0 90.0)
           (-90.0 90.0)
  end
  begin
     id 19
     name lradius
     direction 1 -4.48957e-011 -6.30627e-028   
     length 3.2452   
     axis 180 -30 -90   XYZ
    dof rx
    limits (-10.0 170.0)
  end
  begin
     id 20
     name lwrist
     direction 1 -4.4901e-011 9.13299e-027   
     length 1.6226   
     axis -6.84618e-015 90 90   XYZ
    dof ry
    limits (-180.0 0.0)
 end
  begin
     id 21 
     name lhand
     direction 1 -4.48816e-011 1.82293e-026   
     length 0.521221   
     axis -1.16502e-014 90 90   XYZ
    dof rx rz
    limits (-90.0 90.0)
           (-45.0 45.0)
  end
  begin
     id 22 
     name lfingers
     direction 1 -4.49108e-011 3.65687e-026   
     length 0.420221   
     axis -2.33008e-014 90 90   XYZ
    dof rx
    limits (0.0 90.0)
  end
  begin
     id 23
     name lthumb
     direction 0.707107 -6.34943e-011 0.707107   
     length 0.603356   
     axis -90 45 5.69224e-014   XYZ
    dof rx rz
    limits (-45.0 45.0)
           (-45.0 45.0)
  end
  begin
     id 24 
     name rclavicle
     direction -0.90847 0.38596 0.160368   
     length 3.12973  
     axis 0 0 0   XYZ 
    dof ry rz
    limits (-10.0 20.0)
           (-20.0 0.0)
  end
  begin
     id 25 
     name rhumerus
     direction -1 -4.48974e-011 4.47268e-028  
     length 4.72284   
     axis 180 30 90   XYZ
    dof rx ry rz
    limits (-90.0 60.0)
           (-90.0 90.0)
           (-90.0 90.0)
  end
  begin
     id 26 
     name rradius
     direction -1 -4.48969e-011 3.43203e-027   
     length 3.23459   
     axis 180 30 90   XYZ
    dof rx
    limits (-10.0 170.0)
  end
  begin
     id 27 
     name rwrist
     direction -1 -4.48969e-011 9.12911e-027   
     length 1.6173   
     axis -6.84618e-015 -90 -90   XYZ
    dof ry
    limits (-180.0 0.0)
  end
  begin
     id 28
     name rhand
     direction -1 -4.49194e-011 1.83006e-026   
     length 0.307416   
     axis -1.16502e-014 -90 -90   XYZ
    dof rx rz
    limits (-90.0 90.0)
           (-45.0 45.0)
  end
  begin
     id 29
     name rfingers
     direction -1 -4.48423e-011 3.63103e-026   
     length 0.247847   
     axis -2.33008e-014 -90 -90   XYZ
    dof rx
    limits (0.0 90.0)
  end
  begin
     id 30
     name rthumb
     direction -0.707107 -6.34802e-011 0.707107   
     length 0.35586   
     axis -90 -45 -5.69224e-014   XYZ
    dof rx rz
    limits (-45.0 45.0)
           (-45.0 45.0)
  end
:hierarchy
  begin
    root lhipjoint rhipjoint lowerback
    lhipjoint lfemur
    lfemur ltibia
    ltibia lfoot
    lfoot ltoes
    rhipjoint rfemur
    rfemur rtibia
    rtibia rfoot
    rfoot rtoes
    lowerback upperback
    upperback thorax
    thorax lowerneck lclavicle rclavicle
    lowerneck upperneck
    upperneck head
    lclavicle lhumerus
    lhumerus lradius
    lradius lwrist
    lwrist lhand lthumb
    lhand lfingers
    rclavicle rhumerus
    rhumerus rradius
    rradius rwrist
    rwrist rhand rthumb
    rhand rfingers
  end

#!OML:ASF H:\Terrain\Patient Classification 1\Animal1\Tuesday\Animal1.ASF
:FULLY-SPECIFIED
:DEGREES
260
root 8.8106 16.6097 -7.08438 7.65703 -0.56804 -1.59528
lowerback 3.89615 -1.2157 0.848665
upperback 5.99642 -1.65202 1.34309
thorax 4.01723 -0.822819 0.915862
lowerneck -8.8278 0.288914 -7.6137
upperneck 3.56095 0.690535 9.837
head 2.43371 0.589104 4.26123
rclavicle 1.28216e-014 -5.06901e-015
rhumerus -7.03717 15.8575 -81.6183
rradius 24.7319
rwrist -23.0984
rhand -20.0094 21.86
rfingers 7.12502
rthumb 6.33075 -8.02539
lclavicle 1.28216e-014 -5.06901e-015
lhumerus -11.2804 -7.40901 90.4392
lradius 24.9114
lwrist -30.1168
lhand 0.353076 40.4184
lfingers 7.12502
lthumb 25.9285 68.6702
rfemur -18.6201 7.01547 22.7465
rtibia 25.6348
rfoot -10.2851 -28.7456
rtoes 8.06091
lfemur -26.281 -10.7989 -12.8186
ltibia 17.5504
lfoot -6.00673 20.9669
ltoes -2.37444
261
root 8.84176 16.6122 -7.02911 7.50677 -0.887503 -1.2614
lowerback 3.91994 -1.20411 0.274023
upperback 6.00044 -1.63597 1.10521
thorax 4.01623 -0.833265 0.992062
lowerneck -8.73252 0.238231 -7.7331
upperneck 3.46135 0.629623 9.95717
head 2.39356 0.55829 4.31392
rclavicle -1.30452e-014 7.40473e-015
rhumerus -6.88532 13.761 -81.5238
rradius 24.4489
rwrist -22.5287
rhand -18.4491 23.5044
rfingers 7.12502
rthumb 7.83685 -6.33033
lclavicle -1.30452e-014 7.40473e-015
lhumerus -10.9198 -6.69505 90.35
lradius 25.0082
lwrist -30.0343
lhand 0.629202 39.7851
lfingers 7.12502
lthumb 26.1929 67.9979
rfemur -18.5068 6.53997 22.3004
rtibia 26.0568
rfoot -10.7751 -27.9709
rtoes 8.46632
lfemur -26.0504 -10.9589 -13.2948
ltibia 17.924
lfoot -5.55266 21.0716
ltoes -1.81081
262
root 8.8756 16.611 -6.96728 7.13672 -1.18395 -1.07502
lowerback 4.02791 -1.16685 -0.0732745
upperback 6.12157 -1.58436 0.876187
thorax 4.08428 -0.817161 0.950839
lowerneck -8.9383 0.194549 -7.7132
upperneck 3.69568 0.564942 9.97935
head 2.5027 0.53394 4.31875
rclavicle 4.41675e-015 3.52843e-015
rhumerus -7.02759 12.5047 -81.3877
rradius 24.9273
rwrist -22.531
rhand -18.3103 24.7026
rfingers 7.12502
rthumb 7.97082 -5.1271
lclavicle 4.41675e-015 3.52843e-015
lhumerus -10.5914 -6.32677 90.2602
lradius 25.2833
lwrist -29.7899
lhand 0.763586 39.3623
lfingers 7.12502
lthumb 26.3216 67.5559
rfemur -18.1768 5.95252 22.0421
rtibia 26.592
rfoot -10.8959 -27.2525
rtoes 7.85374
lfemur -25.5055 -10.8274 -13.76
ltibia 18.1728
lfoot -4.8178 21.3347
ltoes -2.46026
263
root 8.90736 16.6058 -6.91116 6.97067 -1.29062 -1.17549
lowerback 3.93566 -1.20306 -0.0864746
upperback 6.18862 -1.6293 0.722336
thorax 4.20294 -0.836674 0.796692
lowerneck -8.86152 0.211886 -7.66526
upperneck 3.70413 0.579159 9.95098
head 2.49152 0.538851 4.30198
rclavicle 2.73329e-016 -1.43125e-014
rhumerus -7.25808 11.9877 -81.2648
rradius 25.6759
rwrist -22.717
rhand -18.8938 24.9764
rfingers 7.12502
rthumb 7.40767 -4.87391
lclavicle 2.73329e-016 -1.43125e-014
lhumerus -10.2087 -6.63636 90.125
lradius 25.5359
lwrist -29.6217
lhand 1.03074 39.84
lfingers 7.12502
lthumb 26.5773 67.9952
rfemur -18.1421 5.24835 22.1213
rtibia 27.2802
rfoot -10.9443 -26.7251
rtoes 6.65395
lfemur -25.1241 -10.5378 -13.906
ltibia 18.267
lfoot -4.08953 21.6964
ltoes -3.68495
264
root 8.94215 16.6089 -6.85817 7.17633 -1.35888 -0.854687
lowerback 3.56654 -1.22279 -0.425079
upperback 6.10836 -1.64926 0.431296
thorax 4.32769 -0.853659 0.678018
lowerneck -8.67731 0.230054 -7.48808
upperneck 3.50678 0.594164 9.78606
head 2.40223 0.537127 4.21863
rclavicle 5.56597e-015 -1.19271e-014
rhumerus -7.45941 11.1383 -81.1597
rradius 26.08
rwrist -22.7981
rhand -19.173 25.3165
rfingers 7.12502
rthumb 7.13815 -4.54313
lclavicle 5.56597e-015 -1.19271e-014
lhumerus -9.69147 -7.11027 89.9131
lradius 25.664
lwrist -29.2157
lhand 0.936161 39.8835
lfingers 7.12502
lthumb 26.4867 68.0524
rfemur -18.5793 4.38351 21.7006
rtibia 28.0179
rfoot -11.3825 -26.0812
rtoes 6.38458
lfemur -25.202 -10.3301 -14.4559
ltibia 18.524
lfoot -3.90597 21.6527
ltoes -3.4049
265
root 8.97592 16.6087 -6.8089 7.27109 -1.5467 -0.492143
lowerback 3.41839 -1.16958 -0.830897
upperback 6.02804 -1.5702 0.130937
thorax 4.32832 -0.823926 0.592891
lowerneck -8.67303 0.208984 -7.29314
upperneck 3.44419 0.558802 9.58168
head 2.38687 0.514649 4.12097
rclavicle 2.00773e-014 -5.96354e-015
rhumerus -7.73671 10.002 -81.0228
rradius 26.4221
rwrist -22.778
rhand -19.5228 25.7697
rfingers 7.12502
rthumb 6.80044 -4.10106
lclavicle 2.00773e-014 -5.96354e-015
lhumerus -9.19351 -6.82392 89.6701
lradius 25.9222
lwrist -28.5556
lhand 1.58162 39.235
lfingers 7.12502
lthumb 27.1044 67.3092
rfemur -19.0091 3.68679 21.2099
rtibia 28.8103
rfoot -11.5487 -25.4246
rtoes 6.39432
lfemur -25.3188 -9.95648 -15.1071
ltibia 18.9684
lfoot -3.65699 21.1741
ltoes -3.87058
266
root 9.00817 16.5999 -6.76188 7.24514 -1.8881 -0.698435
lowerback 3.37437 -1.07234 -0.72797
upperback 6.00159 -1.4364 0.0103045
thorax 4.31686 -0.749758 0.411023
lowerneck -8.62715 0.171864 -7.23361
upperneck 3.41834 0.507375 9.46915
head 2.37636 0.484737 4.07353
rclavicle 1.88845e-015 -1.78906e-015
rhumerus -8.01796 8.95443 -80.839
rradius 26.9498
rwrist -22.8591
rhand -20.0546 25.7626
rfingers 7.12502
rthumb 6.28707 -4.12413
lclavicle 1.88845e-015 -1.78906e-015
lhumerus -8.76045 -6.12399 89.4651
lradius 26.3164
lwrist -27.9908
lhand 3.0097 38.9493
lfingers 7.12502
lthumb 28.4698 66.803
rfemur -19.3923 3.31545 21.3383
rtibia 29.7264
rfoot -11.3531 -24.8908
rtoes 5.8785
lfemur -25.2569 -9.37601 -15.1469
ltibia 19.2918
lfoot -3.80558 20.5665
ltoes -2.70586
267
root 9.04042 16.5972 -6.7082 7.17825 -2.32053 -0.753621
lowerback 3.29303 -0.92722 -0.803598
upperback 5.99988 -1.23806 -0.148522
thorax 4.35626 -0.650453 0.288985
lowerneck -8.51846 0.133378 -7.17138
upperneck 3.29043 0.455999 9.36375
head 2.32524 0.452981 4.0266
rclavicle 1.39149e-015 4.37326e-015
rhumerus -8.29269 7.80706 -80.6304
rradius 27.5672
rwrist -23.307
rhand -20.3077 25.5861
rfingers 7.12502
rthumb 6.04278 -4.30771
lclavicle 1.39149e-015 4.37326e-015
lhumerus -8.45367 -5.72488 89.313
lradius 26.6764
lwrist -28.411
lhand 3.49388 38.8312
lfingers 7.12502
lthumb 28.9324 66.6066
rfemur -19.7339 2.79192 21.3197
rtibia 30.678
rfoot -11.4977 -24.203
rtoes 5.9744
lfemur -25.0421 -8.69063 -15.4005
ltibia 19.6032
lfoot -4.23123 20.0149
ltoes -0.0435801
268
root 9.06999 16.6012 -6.65705 7.13138 -2.73276 -0.398971
lowerback 3.2356 -0.740498 -1.26266
upperback 5.93463 -0.982618 -0.401578
thorax 4.32134 -0.536386 0.28593
lowerneck -8.36888 0.06823 -7.18706
upperneck 3.21817 0.370707 9.27684
head 2.28653 0.403474 3.99713
rclavicle -6.75868e-015 -8.34896e-015
rhumerus -8.5988 6.40655 -80.2729
rradius 28.0273
rwrist -23.7951
rhand -19.9177 25.8444
rfingers 7.12502
rthumb 6.41925 -4.03836
lclavicle -6.75868e-015 -8.34896e-015
lhumerus -8.32856 -5.47857 89.2431
lradius 27.0894
lwrist -29.0733
lhand 3.43228 38.7054
lfingers 7.12502
lthumb 28.8735 66.4908
rfemur -20.1644 2.13753 20.8565
rtibia 31.5863
rfoot -11.3725 -23.6977
rtoes 4.98482
lfemur -24.9527 -7.9312 -16.1349
ltibia 20.0618
lfoot -4.504 19.4383
ltoes 1.63474
